<mxfile host="app.diagrams.net" modified="2023-09-11T17:47:04.704Z" agent="Mozilla/5.0 (Windows NT 10.0; Win64; x64) AppleWebKit/537.36 (KHTML, like Gecko) Chrome/115.0.0.0 Safari/537.36 OPR/101.0.0.0" etag="gBEAF79Jr0MrCzgHvgrw" version="21.7.4" type="device">
  <diagram name="PÃ¡gina-1" id="OWRRB4OZyR0hkFMoqZuT">
    <mxGraphModel dx="1561" dy="1038" grid="0" gridSize="10" guides="1" tooltips="1" connect="1" arrows="1" fold="1" page="0" pageScale="1" pageWidth="827" pageHeight="1169" math="0" shadow="0">
      <root>
        <mxCell id="0" />
        <mxCell id="1" parent="0" />
        <mxCell id="oMHJoRBl6DmMWUQxA58v-41" style="edgeStyle=orthogonalEdgeStyle;rounded=0;orthogonalLoop=1;jettySize=auto;html=1;startArrow=ERmandOne;startFill=0;endArrow=ERoneToMany;endFill=0;" edge="1" parent="1" source="oMHJoRBl6DmMWUQxA58v-1" target="oMHJoRBl6DmMWUQxA58v-31">
          <mxGeometry relative="1" as="geometry" />
        </mxCell>
        <mxCell id="oMHJoRBl6DmMWUQxA58v-1" value="USER" style="shape=table;startSize=30;container=1;collapsible=1;childLayout=tableLayout;fixedRows=1;rowLines=0;fontStyle=1;align=center;resizeLast=1;html=1;" vertex="1" parent="1">
          <mxGeometry x="102" y="196" width="230" height="175" as="geometry" />
        </mxCell>
        <mxCell id="oMHJoRBl6DmMWUQxA58v-2" value="" style="shape=tableRow;horizontal=0;startSize=0;swimlaneHead=0;swimlaneBody=0;fillColor=none;collapsible=0;dropTarget=0;points=[[0,0.5],[1,0.5]];portConstraint=eastwest;top=0;left=0;right=0;bottom=1;" vertex="1" parent="oMHJoRBl6DmMWUQxA58v-1">
          <mxGeometry y="30" width="230" height="30" as="geometry" />
        </mxCell>
        <mxCell id="oMHJoRBl6DmMWUQxA58v-3" value="PK" style="shape=partialRectangle;connectable=0;fillColor=none;top=0;left=0;bottom=0;right=0;fontStyle=1;overflow=hidden;whiteSpace=wrap;html=1;" vertex="1" parent="oMHJoRBl6DmMWUQxA58v-2">
          <mxGeometry width="30" height="30" as="geometry">
            <mxRectangle width="30" height="30" as="alternateBounds" />
          </mxGeometry>
        </mxCell>
        <mxCell id="oMHJoRBl6DmMWUQxA58v-4" value="id_user INT(10)" style="shape=partialRectangle;connectable=0;fillColor=none;top=0;left=0;bottom=0;right=0;align=left;spacingLeft=6;fontStyle=5;overflow=hidden;whiteSpace=wrap;html=1;" vertex="1" parent="oMHJoRBl6DmMWUQxA58v-2">
          <mxGeometry x="30" width="200" height="30" as="geometry">
            <mxRectangle width="200" height="30" as="alternateBounds" />
          </mxGeometry>
        </mxCell>
        <mxCell id="oMHJoRBl6DmMWUQxA58v-5" value="" style="shape=tableRow;horizontal=0;startSize=0;swimlaneHead=0;swimlaneBody=0;fillColor=none;collapsible=0;dropTarget=0;points=[[0,0.5],[1,0.5]];portConstraint=eastwest;top=0;left=0;right=0;bottom=0;" vertex="1" parent="oMHJoRBl6DmMWUQxA58v-1">
          <mxGeometry y="60" width="230" height="30" as="geometry" />
        </mxCell>
        <mxCell id="oMHJoRBl6DmMWUQxA58v-6" value="" style="shape=partialRectangle;connectable=0;fillColor=none;top=0;left=0;bottom=0;right=0;editable=1;overflow=hidden;whiteSpace=wrap;html=1;" vertex="1" parent="oMHJoRBl6DmMWUQxA58v-5">
          <mxGeometry width="30" height="30" as="geometry">
            <mxRectangle width="30" height="30" as="alternateBounds" />
          </mxGeometry>
        </mxCell>
        <mxCell id="oMHJoRBl6DmMWUQxA58v-7" value="email VARCHAR(100)" style="shape=partialRectangle;connectable=0;fillColor=none;top=0;left=0;bottom=0;right=0;align=left;spacingLeft=6;overflow=hidden;whiteSpace=wrap;html=1;" vertex="1" parent="oMHJoRBl6DmMWUQxA58v-5">
          <mxGeometry x="30" width="200" height="30" as="geometry">
            <mxRectangle width="200" height="30" as="alternateBounds" />
          </mxGeometry>
        </mxCell>
        <mxCell id="oMHJoRBl6DmMWUQxA58v-8" value="" style="shape=tableRow;horizontal=0;startSize=0;swimlaneHead=0;swimlaneBody=0;fillColor=none;collapsible=0;dropTarget=0;points=[[0,0.5],[1,0.5]];portConstraint=eastwest;top=0;left=0;right=0;bottom=0;" vertex="1" parent="oMHJoRBl6DmMWUQxA58v-1">
          <mxGeometry y="90" width="230" height="30" as="geometry" />
        </mxCell>
        <mxCell id="oMHJoRBl6DmMWUQxA58v-9" value="" style="shape=partialRectangle;connectable=0;fillColor=none;top=0;left=0;bottom=0;right=0;editable=1;overflow=hidden;whiteSpace=wrap;html=1;" vertex="1" parent="oMHJoRBl6DmMWUQxA58v-8">
          <mxGeometry width="30" height="30" as="geometry">
            <mxRectangle width="30" height="30" as="alternateBounds" />
          </mxGeometry>
        </mxCell>
        <mxCell id="oMHJoRBl6DmMWUQxA58v-10" value="password VARCHAR(256)" style="shape=partialRectangle;connectable=0;fillColor=none;top=0;left=0;bottom=0;right=0;align=left;spacingLeft=6;overflow=hidden;whiteSpace=wrap;html=1;" vertex="1" parent="oMHJoRBl6DmMWUQxA58v-8">
          <mxGeometry x="30" width="200" height="30" as="geometry">
            <mxRectangle width="200" height="30" as="alternateBounds" />
          </mxGeometry>
        </mxCell>
        <mxCell id="oMHJoRBl6DmMWUQxA58v-11" value="" style="shape=tableRow;horizontal=0;startSize=0;swimlaneHead=0;swimlaneBody=0;fillColor=none;collapsible=0;dropTarget=0;points=[[0,0.5],[1,0.5]];portConstraint=eastwest;top=0;left=0;right=0;bottom=0;" vertex="1" parent="oMHJoRBl6DmMWUQxA58v-1">
          <mxGeometry y="120" width="230" height="27" as="geometry" />
        </mxCell>
        <mxCell id="oMHJoRBl6DmMWUQxA58v-12" value="" style="shape=partialRectangle;connectable=0;fillColor=none;top=0;left=0;bottom=0;right=0;editable=1;overflow=hidden;whiteSpace=wrap;html=1;" vertex="1" parent="oMHJoRBl6DmMWUQxA58v-11">
          <mxGeometry width="30" height="27" as="geometry">
            <mxRectangle width="30" height="27" as="alternateBounds" />
          </mxGeometry>
        </mxCell>
        <mxCell id="oMHJoRBl6DmMWUQxA58v-13" value="is_active TINYINT(1)" style="shape=partialRectangle;connectable=0;fillColor=none;top=0;left=0;bottom=0;right=0;align=left;spacingLeft=6;overflow=hidden;whiteSpace=wrap;html=1;" vertex="1" parent="oMHJoRBl6DmMWUQxA58v-11">
          <mxGeometry x="30" width="200" height="27" as="geometry">
            <mxRectangle width="200" height="27" as="alternateBounds" />
          </mxGeometry>
        </mxCell>
        <mxCell id="oMHJoRBl6DmMWUQxA58v-65" style="shape=tableRow;horizontal=0;startSize=0;swimlaneHead=0;swimlaneBody=0;fillColor=none;collapsible=0;dropTarget=0;points=[[0,0.5],[1,0.5]];portConstraint=eastwest;top=0;left=0;right=0;bottom=0;" vertex="1" parent="oMHJoRBl6DmMWUQxA58v-1">
          <mxGeometry y="147" width="230" height="27" as="geometry" />
        </mxCell>
        <mxCell id="oMHJoRBl6DmMWUQxA58v-66" value="FK" style="shape=partialRectangle;connectable=0;fillColor=none;top=0;left=0;bottom=0;right=0;editable=1;overflow=hidden;whiteSpace=wrap;html=1;" vertex="1" parent="oMHJoRBl6DmMWUQxA58v-65">
          <mxGeometry width="30" height="27" as="geometry">
            <mxRectangle width="30" height="27" as="alternateBounds" />
          </mxGeometry>
        </mxCell>
        <mxCell id="oMHJoRBl6DmMWUQxA58v-67" value="id_person INT(10)" style="shape=partialRectangle;connectable=0;fillColor=none;top=0;left=0;bottom=0;right=0;align=left;spacingLeft=6;overflow=hidden;whiteSpace=wrap;html=1;" vertex="1" parent="oMHJoRBl6DmMWUQxA58v-65">
          <mxGeometry x="30" width="200" height="27" as="geometry">
            <mxRectangle width="200" height="27" as="alternateBounds" />
          </mxGeometry>
        </mxCell>
        <mxCell id="oMHJoRBl6DmMWUQxA58v-42" style="edgeStyle=orthogonalEdgeStyle;rounded=0;orthogonalLoop=1;jettySize=auto;html=1;entryX=1;entryY=0.5;entryDx=0;entryDy=0;startArrow=ERmandOne;startFill=0;endArrow=ERoneToMany;endFill=0;" edge="1" parent="1" source="oMHJoRBl6DmMWUQxA58v-14" target="oMHJoRBl6DmMWUQxA58v-31">
          <mxGeometry relative="1" as="geometry" />
        </mxCell>
        <mxCell id="oMHJoRBl6DmMWUQxA58v-14" value="ROLE" style="shape=table;startSize=30;container=1;collapsible=1;childLayout=tableLayout;fixedRows=1;rowLines=0;fontStyle=1;align=center;resizeLast=1;html=1;" vertex="1" parent="1">
          <mxGeometry x="396" y="196" width="231" height="150.72413793103448" as="geometry" />
        </mxCell>
        <mxCell id="oMHJoRBl6DmMWUQxA58v-15" value="" style="shape=tableRow;horizontal=0;startSize=0;swimlaneHead=0;swimlaneBody=0;fillColor=none;collapsible=0;dropTarget=0;points=[[0,0.5],[1,0.5]];portConstraint=eastwest;top=0;left=0;right=0;bottom=1;" vertex="1" parent="oMHJoRBl6DmMWUQxA58v-14">
          <mxGeometry y="30" width="231" height="30" as="geometry" />
        </mxCell>
        <mxCell id="oMHJoRBl6DmMWUQxA58v-16" value="PK" style="shape=partialRectangle;connectable=0;fillColor=none;top=0;left=0;bottom=0;right=0;fontStyle=1;overflow=hidden;whiteSpace=wrap;html=1;" vertex="1" parent="oMHJoRBl6DmMWUQxA58v-15">
          <mxGeometry width="30" height="30" as="geometry">
            <mxRectangle width="30" height="30" as="alternateBounds" />
          </mxGeometry>
        </mxCell>
        <mxCell id="oMHJoRBl6DmMWUQxA58v-17" value="Id_role INT(10)" style="shape=partialRectangle;connectable=0;fillColor=none;top=0;left=0;bottom=0;right=0;align=left;spacingLeft=6;fontStyle=5;overflow=hidden;whiteSpace=wrap;html=1;" vertex="1" parent="oMHJoRBl6DmMWUQxA58v-15">
          <mxGeometry x="30" width="201" height="30" as="geometry">
            <mxRectangle width="201" height="30" as="alternateBounds" />
          </mxGeometry>
        </mxCell>
        <mxCell id="oMHJoRBl6DmMWUQxA58v-18" value="" style="shape=tableRow;horizontal=0;startSize=0;swimlaneHead=0;swimlaneBody=0;fillColor=none;collapsible=0;dropTarget=0;points=[[0,0.5],[1,0.5]];portConstraint=eastwest;top=0;left=0;right=0;bottom=0;" vertex="1" parent="oMHJoRBl6DmMWUQxA58v-14">
          <mxGeometry y="60" width="231" height="30" as="geometry" />
        </mxCell>
        <mxCell id="oMHJoRBl6DmMWUQxA58v-19" value="" style="shape=partialRectangle;connectable=0;fillColor=none;top=0;left=0;bottom=0;right=0;editable=1;overflow=hidden;whiteSpace=wrap;html=1;" vertex="1" parent="oMHJoRBl6DmMWUQxA58v-18">
          <mxGeometry width="30" height="30" as="geometry">
            <mxRectangle width="30" height="30" as="alternateBounds" />
          </mxGeometry>
        </mxCell>
        <mxCell id="oMHJoRBl6DmMWUQxA58v-20" value="name VARCHAR(100)&lt;span style=&quot;white-space: pre;&quot;&gt;&#x9;&lt;/span&gt;" style="shape=partialRectangle;connectable=0;fillColor=none;top=0;left=0;bottom=0;right=0;align=left;spacingLeft=6;overflow=hidden;whiteSpace=wrap;html=1;" vertex="1" parent="oMHJoRBl6DmMWUQxA58v-18">
          <mxGeometry x="30" width="201" height="30" as="geometry">
            <mxRectangle width="201" height="30" as="alternateBounds" />
          </mxGeometry>
        </mxCell>
        <mxCell id="oMHJoRBl6DmMWUQxA58v-21" value="" style="shape=tableRow;horizontal=0;startSize=0;swimlaneHead=0;swimlaneBody=0;fillColor=none;collapsible=0;dropTarget=0;points=[[0,0.5],[1,0.5]];portConstraint=eastwest;top=0;left=0;right=0;bottom=0;" vertex="1" parent="oMHJoRBl6DmMWUQxA58v-14">
          <mxGeometry y="90" width="231" height="33" as="geometry" />
        </mxCell>
        <mxCell id="oMHJoRBl6DmMWUQxA58v-22" value="" style="shape=partialRectangle;connectable=0;fillColor=none;top=0;left=0;bottom=0;right=0;editable=1;overflow=hidden;whiteSpace=wrap;html=1;" vertex="1" parent="oMHJoRBl6DmMWUQxA58v-21">
          <mxGeometry width="30" height="33" as="geometry">
            <mxRectangle width="30" height="33" as="alternateBounds" />
          </mxGeometry>
        </mxCell>
        <mxCell id="oMHJoRBl6DmMWUQxA58v-23" value="is_active TINYINT(1)" style="shape=partialRectangle;connectable=0;fillColor=none;top=0;left=0;bottom=0;right=0;align=left;spacingLeft=6;overflow=hidden;whiteSpace=wrap;html=1;" vertex="1" parent="oMHJoRBl6DmMWUQxA58v-21">
          <mxGeometry x="30" width="201" height="33" as="geometry">
            <mxRectangle width="201" height="33" as="alternateBounds" />
          </mxGeometry>
        </mxCell>
        <mxCell id="oMHJoRBl6DmMWUQxA58v-27" value="USER_ROLE" style="shape=table;startSize=30;container=1;collapsible=1;childLayout=tableLayout;fixedRows=1;rowLines=0;fontStyle=1;align=center;resizeLast=1;html=1;" vertex="1" parent="1">
          <mxGeometry x="276" y="5" width="180" height="90" as="geometry" />
        </mxCell>
        <mxCell id="oMHJoRBl6DmMWUQxA58v-28" value="" style="shape=tableRow;horizontal=0;startSize=0;swimlaneHead=0;swimlaneBody=0;fillColor=none;collapsible=0;dropTarget=0;points=[[0,0.5],[1,0.5]];portConstraint=eastwest;top=0;left=0;right=0;bottom=1;" vertex="1" parent="oMHJoRBl6DmMWUQxA58v-27">
          <mxGeometry y="30" width="180" height="30" as="geometry" />
        </mxCell>
        <mxCell id="oMHJoRBl6DmMWUQxA58v-29" value="FK" style="shape=partialRectangle;connectable=0;fillColor=none;top=0;left=0;bottom=0;right=0;fontStyle=1;overflow=hidden;whiteSpace=wrap;html=1;" vertex="1" parent="oMHJoRBl6DmMWUQxA58v-28">
          <mxGeometry width="30" height="30" as="geometry">
            <mxRectangle width="30" height="30" as="alternateBounds" />
          </mxGeometry>
        </mxCell>
        <mxCell id="oMHJoRBl6DmMWUQxA58v-30" value="id_user INT(10)" style="shape=partialRectangle;connectable=0;fillColor=none;top=0;left=0;bottom=0;right=0;align=left;spacingLeft=6;fontStyle=5;overflow=hidden;whiteSpace=wrap;html=1;" vertex="1" parent="oMHJoRBl6DmMWUQxA58v-28">
          <mxGeometry x="30" width="150" height="30" as="geometry">
            <mxRectangle width="150" height="30" as="alternateBounds" />
          </mxGeometry>
        </mxCell>
        <mxCell id="oMHJoRBl6DmMWUQxA58v-31" value="" style="shape=tableRow;horizontal=0;startSize=0;swimlaneHead=0;swimlaneBody=0;fillColor=none;collapsible=0;dropTarget=0;points=[[0,0.5],[1,0.5]];portConstraint=eastwest;top=0;left=0;right=0;bottom=0;" vertex="1" parent="oMHJoRBl6DmMWUQxA58v-27">
          <mxGeometry y="60" width="180" height="30" as="geometry" />
        </mxCell>
        <mxCell id="oMHJoRBl6DmMWUQxA58v-32" value="FK" style="shape=partialRectangle;connectable=0;fillColor=none;top=0;left=0;bottom=0;right=0;editable=1;overflow=hidden;whiteSpace=wrap;html=1;" vertex="1" parent="oMHJoRBl6DmMWUQxA58v-31">
          <mxGeometry width="30" height="30" as="geometry">
            <mxRectangle width="30" height="30" as="alternateBounds" />
          </mxGeometry>
        </mxCell>
        <mxCell id="oMHJoRBl6DmMWUQxA58v-33" value="Id_role INT(10)" style="shape=partialRectangle;connectable=0;fillColor=none;top=0;left=0;bottom=0;right=0;align=left;spacingLeft=6;overflow=hidden;whiteSpace=wrap;html=1;" vertex="1" parent="oMHJoRBl6DmMWUQxA58v-31">
          <mxGeometry x="30" width="150" height="30" as="geometry">
            <mxRectangle width="150" height="30" as="alternateBounds" />
          </mxGeometry>
        </mxCell>
        <mxCell id="oMHJoRBl6DmMWUQxA58v-43" value="PERSON" style="shape=table;startSize=30;container=1;collapsible=1;childLayout=tableLayout;fixedRows=1;rowLines=0;fontStyle=1;align=center;resizeLast=1;html=1;" vertex="1" parent="1">
          <mxGeometry x="-234" y="196" width="228" height="159" as="geometry" />
        </mxCell>
        <mxCell id="oMHJoRBl6DmMWUQxA58v-44" value="" style="shape=tableRow;horizontal=0;startSize=0;swimlaneHead=0;swimlaneBody=0;fillColor=none;collapsible=0;dropTarget=0;points=[[0,0.5],[1,0.5]];portConstraint=eastwest;top=0;left=0;right=0;bottom=1;" vertex="1" parent="oMHJoRBl6DmMWUQxA58v-43">
          <mxGeometry y="30" width="228" height="30" as="geometry" />
        </mxCell>
        <mxCell id="oMHJoRBl6DmMWUQxA58v-45" value="PK" style="shape=partialRectangle;connectable=0;fillColor=none;top=0;left=0;bottom=0;right=0;fontStyle=1;overflow=hidden;whiteSpace=wrap;html=1;" vertex="1" parent="oMHJoRBl6DmMWUQxA58v-44">
          <mxGeometry width="30" height="30" as="geometry">
            <mxRectangle width="30" height="30" as="alternateBounds" />
          </mxGeometry>
        </mxCell>
        <mxCell id="oMHJoRBl6DmMWUQxA58v-46" value="ID_person&amp;nbsp; INT(10)" style="shape=partialRectangle;connectable=0;fillColor=none;top=0;left=0;bottom=0;right=0;align=left;spacingLeft=6;fontStyle=5;overflow=hidden;whiteSpace=wrap;html=1;" vertex="1" parent="oMHJoRBl6DmMWUQxA58v-44">
          <mxGeometry x="30" width="198" height="30" as="geometry">
            <mxRectangle width="198" height="30" as="alternateBounds" />
          </mxGeometry>
        </mxCell>
        <mxCell id="oMHJoRBl6DmMWUQxA58v-47" value="" style="shape=tableRow;horizontal=0;startSize=0;swimlaneHead=0;swimlaneBody=0;fillColor=none;collapsible=0;dropTarget=0;points=[[0,0.5],[1,0.5]];portConstraint=eastwest;top=0;left=0;right=0;bottom=0;" vertex="1" parent="oMHJoRBl6DmMWUQxA58v-43">
          <mxGeometry y="60" width="228" height="30" as="geometry" />
        </mxCell>
        <mxCell id="oMHJoRBl6DmMWUQxA58v-48" value="" style="shape=partialRectangle;connectable=0;fillColor=none;top=0;left=0;bottom=0;right=0;editable=1;overflow=hidden;whiteSpace=wrap;html=1;" vertex="1" parent="oMHJoRBl6DmMWUQxA58v-47">
          <mxGeometry width="30" height="30" as="geometry">
            <mxRectangle width="30" height="30" as="alternateBounds" />
          </mxGeometry>
        </mxCell>
        <mxCell id="oMHJoRBl6DmMWUQxA58v-49" value="name VARCHAR(100)" style="shape=partialRectangle;connectable=0;fillColor=none;top=0;left=0;bottom=0;right=0;align=left;spacingLeft=6;overflow=hidden;whiteSpace=wrap;html=1;" vertex="1" parent="oMHJoRBl6DmMWUQxA58v-47">
          <mxGeometry x="30" width="198" height="30" as="geometry">
            <mxRectangle width="198" height="30" as="alternateBounds" />
          </mxGeometry>
        </mxCell>
        <mxCell id="oMHJoRBl6DmMWUQxA58v-50" value="" style="shape=tableRow;horizontal=0;startSize=0;swimlaneHead=0;swimlaneBody=0;fillColor=none;collapsible=0;dropTarget=0;points=[[0,0.5],[1,0.5]];portConstraint=eastwest;top=0;left=0;right=0;bottom=0;" vertex="1" parent="oMHJoRBl6DmMWUQxA58v-43">
          <mxGeometry y="90" width="228" height="30" as="geometry" />
        </mxCell>
        <mxCell id="oMHJoRBl6DmMWUQxA58v-51" value="" style="shape=partialRectangle;connectable=0;fillColor=none;top=0;left=0;bottom=0;right=0;editable=1;overflow=hidden;whiteSpace=wrap;html=1;" vertex="1" parent="oMHJoRBl6DmMWUQxA58v-50">
          <mxGeometry width="30" height="30" as="geometry">
            <mxRectangle width="30" height="30" as="alternateBounds" />
          </mxGeometry>
        </mxCell>
        <mxCell id="oMHJoRBl6DmMWUQxA58v-52" value="cpf CHAR(11)" style="shape=partialRectangle;connectable=0;fillColor=none;top=0;left=0;bottom=0;right=0;align=left;spacingLeft=6;overflow=hidden;whiteSpace=wrap;html=1;" vertex="1" parent="oMHJoRBl6DmMWUQxA58v-50">
          <mxGeometry x="30" width="198" height="30" as="geometry">
            <mxRectangle width="198" height="30" as="alternateBounds" />
          </mxGeometry>
        </mxCell>
        <mxCell id="oMHJoRBl6DmMWUQxA58v-53" value="" style="shape=tableRow;horizontal=0;startSize=0;swimlaneHead=0;swimlaneBody=0;fillColor=none;collapsible=0;dropTarget=0;points=[[0,0.5],[1,0.5]];portConstraint=eastwest;top=0;left=0;right=0;bottom=0;" vertex="1" parent="oMHJoRBl6DmMWUQxA58v-43">
          <mxGeometry y="120" width="228" height="30" as="geometry" />
        </mxCell>
        <mxCell id="oMHJoRBl6DmMWUQxA58v-54" value="" style="shape=partialRectangle;connectable=0;fillColor=none;top=0;left=0;bottom=0;right=0;editable=1;overflow=hidden;whiteSpace=wrap;html=1;" vertex="1" parent="oMHJoRBl6DmMWUQxA58v-53">
          <mxGeometry width="30" height="30" as="geometry">
            <mxRectangle width="30" height="30" as="alternateBounds" />
          </mxGeometry>
        </mxCell>
        <mxCell id="oMHJoRBl6DmMWUQxA58v-55" value="is_active TINYINT(1)" style="shape=partialRectangle;connectable=0;fillColor=none;top=0;left=0;bottom=0;right=0;align=left;spacingLeft=6;overflow=hidden;whiteSpace=wrap;html=1;" vertex="1" parent="oMHJoRBl6DmMWUQxA58v-53">
          <mxGeometry x="30" width="198" height="30" as="geometry">
            <mxRectangle width="198" height="30" as="alternateBounds" />
          </mxGeometry>
        </mxCell>
        <mxCell id="oMHJoRBl6DmMWUQxA58v-74" style="edgeStyle=orthogonalEdgeStyle;rounded=0;orthogonalLoop=1;jettySize=auto;html=1;startArrow=ERmandOne;startFill=0;endArrow=ERmandOne;endFill=0;" edge="1" parent="1" source="oMHJoRBl6DmMWUQxA58v-50">
          <mxGeometry relative="1" as="geometry">
            <mxPoint x="101" y="288" as="targetPoint" />
            <Array as="points">
              <mxPoint x="9" y="306" />
              <mxPoint x="9" y="302" />
              <mxPoint x="102" y="302" />
              <mxPoint x="102" y="288" />
            </Array>
          </mxGeometry>
        </mxCell>
        <mxCell id="oMHJoRBl6DmMWUQxA58v-92" style="edgeStyle=orthogonalEdgeStyle;rounded=0;orthogonalLoop=1;jettySize=auto;html=1;startArrow=ERzeroToMany;startFill=0;endArrow=ERmandOne;endFill=0;" edge="1" parent="1" source="oMHJoRBl6DmMWUQxA58v-76" target="oMHJoRBl6DmMWUQxA58v-43">
          <mxGeometry relative="1" as="geometry" />
        </mxCell>
        <mxCell id="oMHJoRBl6DmMWUQxA58v-76" value="PRODUTOS" style="shape=table;startSize=30;container=1;collapsible=1;childLayout=tableLayout;fixedRows=1;rowLines=0;fontStyle=1;align=center;resizeLast=1;html=1;" vertex="1" parent="1">
          <mxGeometry x="-234" y="-102" width="226.96" height="214" as="geometry" />
        </mxCell>
        <mxCell id="oMHJoRBl6DmMWUQxA58v-77" value="" style="shape=tableRow;horizontal=0;startSize=0;swimlaneHead=0;swimlaneBody=0;fillColor=none;collapsible=0;dropTarget=0;points=[[0,0.5],[1,0.5]];portConstraint=eastwest;top=0;left=0;right=0;bottom=1;" vertex="1" parent="oMHJoRBl6DmMWUQxA58v-76">
          <mxGeometry y="30" width="226.96" height="30" as="geometry" />
        </mxCell>
        <mxCell id="oMHJoRBl6DmMWUQxA58v-78" value="PK" style="shape=partialRectangle;connectable=0;fillColor=none;top=0;left=0;bottom=0;right=0;fontStyle=1;overflow=hidden;whiteSpace=wrap;html=1;" vertex="1" parent="oMHJoRBl6DmMWUQxA58v-77">
          <mxGeometry width="30" height="30" as="geometry">
            <mxRectangle width="30" height="30" as="alternateBounds" />
          </mxGeometry>
        </mxCell>
        <mxCell id="oMHJoRBl6DmMWUQxA58v-79" value="ID_produtos INT(10)" style="shape=partialRectangle;connectable=0;fillColor=none;top=0;left=0;bottom=0;right=0;align=left;spacingLeft=6;fontStyle=5;overflow=hidden;whiteSpace=wrap;html=1;" vertex="1" parent="oMHJoRBl6DmMWUQxA58v-77">
          <mxGeometry x="30" width="196.96" height="30" as="geometry">
            <mxRectangle width="196.96" height="30" as="alternateBounds" />
          </mxGeometry>
        </mxCell>
        <mxCell id="oMHJoRBl6DmMWUQxA58v-80" value="" style="shape=tableRow;horizontal=0;startSize=0;swimlaneHead=0;swimlaneBody=0;fillColor=none;collapsible=0;dropTarget=0;points=[[0,0.5],[1,0.5]];portConstraint=eastwest;top=0;left=0;right=0;bottom=0;" vertex="1" parent="oMHJoRBl6DmMWUQxA58v-76">
          <mxGeometry y="60" width="226.96" height="30" as="geometry" />
        </mxCell>
        <mxCell id="oMHJoRBl6DmMWUQxA58v-81" value="" style="shape=partialRectangle;connectable=0;fillColor=none;top=0;left=0;bottom=0;right=0;editable=1;overflow=hidden;whiteSpace=wrap;html=1;" vertex="1" parent="oMHJoRBl6DmMWUQxA58v-80">
          <mxGeometry width="30" height="30" as="geometry">
            <mxRectangle width="30" height="30" as="alternateBounds" />
          </mxGeometry>
        </mxCell>
        <mxCell id="oMHJoRBl6DmMWUQxA58v-82" value="name VARCHAR(100)" style="shape=partialRectangle;connectable=0;fillColor=none;top=0;left=0;bottom=0;right=0;align=left;spacingLeft=6;overflow=hidden;whiteSpace=wrap;html=1;" vertex="1" parent="oMHJoRBl6DmMWUQxA58v-80">
          <mxGeometry x="30" width="196.96" height="30" as="geometry">
            <mxRectangle width="196.96" height="30" as="alternateBounds" />
          </mxGeometry>
        </mxCell>
        <mxCell id="oMHJoRBl6DmMWUQxA58v-83" value="" style="shape=tableRow;horizontal=0;startSize=0;swimlaneHead=0;swimlaneBody=0;fillColor=none;collapsible=0;dropTarget=0;points=[[0,0.5],[1,0.5]];portConstraint=eastwest;top=0;left=0;right=0;bottom=0;" vertex="1" parent="oMHJoRBl6DmMWUQxA58v-76">
          <mxGeometry y="90" width="226.96" height="30" as="geometry" />
        </mxCell>
        <mxCell id="oMHJoRBl6DmMWUQxA58v-84" value="" style="shape=partialRectangle;connectable=0;fillColor=none;top=0;left=0;bottom=0;right=0;editable=1;overflow=hidden;whiteSpace=wrap;html=1;" vertex="1" parent="oMHJoRBl6DmMWUQxA58v-83">
          <mxGeometry width="30" height="30" as="geometry">
            <mxRectangle width="30" height="30" as="alternateBounds" />
          </mxGeometry>
        </mxCell>
        <mxCell id="oMHJoRBl6DmMWUQxA58v-85" value="quantity INT(5)" style="shape=partialRectangle;connectable=0;fillColor=none;top=0;left=0;bottom=0;right=0;align=left;spacingLeft=6;overflow=hidden;whiteSpace=wrap;html=1;" vertex="1" parent="oMHJoRBl6DmMWUQxA58v-83">
          <mxGeometry x="30" width="196.96" height="30" as="geometry">
            <mxRectangle width="196.96" height="30" as="alternateBounds" />
          </mxGeometry>
        </mxCell>
        <mxCell id="oMHJoRBl6DmMWUQxA58v-86" value="" style="shape=tableRow;horizontal=0;startSize=0;swimlaneHead=0;swimlaneBody=0;fillColor=none;collapsible=0;dropTarget=0;points=[[0,0.5],[1,0.5]];portConstraint=eastwest;top=0;left=0;right=0;bottom=0;" vertex="1" parent="oMHJoRBl6DmMWUQxA58v-76">
          <mxGeometry y="120" width="226.96" height="30" as="geometry" />
        </mxCell>
        <mxCell id="oMHJoRBl6DmMWUQxA58v-87" value="" style="shape=partialRectangle;connectable=0;fillColor=none;top=0;left=0;bottom=0;right=0;editable=1;overflow=hidden;whiteSpace=wrap;html=1;" vertex="1" parent="oMHJoRBl6DmMWUQxA58v-86">
          <mxGeometry width="30" height="30" as="geometry">
            <mxRectangle width="30" height="30" as="alternateBounds" />
          </mxGeometry>
        </mxCell>
        <mxCell id="oMHJoRBl6DmMWUQxA58v-88" value="price INT(5)&lt;br&gt;" style="shape=partialRectangle;connectable=0;fillColor=none;top=0;left=0;bottom=0;right=0;align=left;spacingLeft=6;overflow=hidden;whiteSpace=wrap;html=1;" vertex="1" parent="oMHJoRBl6DmMWUQxA58v-86">
          <mxGeometry x="30" width="196.96" height="30" as="geometry">
            <mxRectangle width="196.96" height="30" as="alternateBounds" />
          </mxGeometry>
        </mxCell>
        <mxCell id="oMHJoRBl6DmMWUQxA58v-89" style="shape=tableRow;horizontal=0;startSize=0;swimlaneHead=0;swimlaneBody=0;fillColor=none;collapsible=0;dropTarget=0;points=[[0,0.5],[1,0.5]];portConstraint=eastwest;top=0;left=0;right=0;bottom=0;" vertex="1" parent="oMHJoRBl6DmMWUQxA58v-76">
          <mxGeometry y="150" width="226.96" height="30" as="geometry" />
        </mxCell>
        <mxCell id="oMHJoRBl6DmMWUQxA58v-90" style="shape=partialRectangle;connectable=0;fillColor=none;top=0;left=0;bottom=0;right=0;editable=1;overflow=hidden;whiteSpace=wrap;html=1;" vertex="1" parent="oMHJoRBl6DmMWUQxA58v-89">
          <mxGeometry width="30" height="30" as="geometry">
            <mxRectangle width="30" height="30" as="alternateBounds" />
          </mxGeometry>
        </mxCell>
        <mxCell id="oMHJoRBl6DmMWUQxA58v-91" value="is_active TINYiNT(1)" style="shape=partialRectangle;connectable=0;fillColor=none;top=0;left=0;bottom=0;right=0;align=left;spacingLeft=6;overflow=hidden;whiteSpace=wrap;html=1;" vertex="1" parent="oMHJoRBl6DmMWUQxA58v-89">
          <mxGeometry x="30" width="196.96" height="30" as="geometry">
            <mxRectangle width="196.96" height="30" as="alternateBounds" />
          </mxGeometry>
        </mxCell>
        <mxCell id="oMHJoRBl6DmMWUQxA58v-93" style="shape=tableRow;horizontal=0;startSize=0;swimlaneHead=0;swimlaneBody=0;fillColor=none;collapsible=0;dropTarget=0;points=[[0,0.5],[1,0.5]];portConstraint=eastwest;top=0;left=0;right=0;bottom=0;" vertex="1" parent="oMHJoRBl6DmMWUQxA58v-76">
          <mxGeometry y="180" width="226.96" height="30" as="geometry" />
        </mxCell>
        <mxCell id="oMHJoRBl6DmMWUQxA58v-94" value="FK" style="shape=partialRectangle;connectable=0;fillColor=none;top=0;left=0;bottom=0;right=0;editable=1;overflow=hidden;whiteSpace=wrap;html=1;" vertex="1" parent="oMHJoRBl6DmMWUQxA58v-93">
          <mxGeometry width="30" height="30" as="geometry">
            <mxRectangle width="30" height="30" as="alternateBounds" />
          </mxGeometry>
        </mxCell>
        <mxCell id="oMHJoRBl6DmMWUQxA58v-95" value="id_person INT(10)" style="shape=partialRectangle;connectable=0;fillColor=none;top=0;left=0;bottom=0;right=0;align=left;spacingLeft=6;overflow=hidden;whiteSpace=wrap;html=1;" vertex="1" parent="oMHJoRBl6DmMWUQxA58v-93">
          <mxGeometry x="30" width="196.96" height="30" as="geometry">
            <mxRectangle width="196.96" height="30" as="alternateBounds" />
          </mxGeometry>
        </mxCell>
      </root>
    </mxGraphModel>
  </diagram>
</mxfile>
